<?xml version="1.0" encoding="utf-8"?>
<!-- Generator: Adobe Illustrator 22.1.0, SVG Export Plug-In . SVG Version: 6.00 Build 0)  -->
<svg version="1.1" id="katman_1" xmlns="http://www.w3.org/2000/svg" xmlns:xlink="http://www.w3.org/1999/xlink" x="0px" y="0px"
	 viewBox="0 0 135 40" style="enable-background:new 0 0 135 40;" xml:space="preserve">
<style type="text/css">
	.st0{fill:#DE5168;}
	.st1{fill:#29A2DD;}
	.st2{enable-background:new    ;}
</style>
<g>
	<g>
		<path class="st0" d="M38.7,32.5c-3.1,0-5.8-1.8-7.1-4.3c-0.6,2.7-1.9,5.1-3.6,7.1c2.7,2.7,6.5,4.4,10.7,4.4s8-1.7,10.7-4.4
			l-5.1-5.1C42.9,31.6,40.9,32.5,38.7,32.5z"/>
		<path class="st1" d="M38.7,16.6c2.2,0,4.2,0.9,5.6,2.3l5.1-5.1c-2.7-2.7-6.5-4.4-10.7-4.4c-8.4,0-15.2,6.8-15.2,15.2
			c0,4.4-3.5,7.9-7.9,7.9s-7.9-3.6-7.9-7.9l0,0v-7.9h7.9V9.4H7.7v-2c0-4-3.2-7.2-7.2-7.2l0,0v24.3c0,8.4,6.8,15.2,15.2,15.2
			c4.6,0,8.7-2.1,11.5-5.3c2.2-2.6,3.6-6.1,3.6-9.8C30.8,20.2,34.3,16.6,38.7,16.6z"/>
	</g>
</g>
<g class="st2">
	<path class="st1" d="M61.4,11.5h-4.5v10h-2.7v-10h-4.5v-2h11.6V11.5z"/>
	<path class="st1" d="M63.1,21.5v-12h6.2c0.6,0,1.2,0.1,1.8,0.3c0.5,0.2,1,0.5,1.4,0.9c0.4,0.4,0.7,0.8,0.9,1.3
		c0.2,0.5,0.3,1,0.3,1.4c0,0.8-0.2,1.5-0.7,2.1c-0.5,0.6-1.1,1.1-1.8,1.4l3.2,4.5h-3l-2.8-4h-2.7v4H63.1z M65.8,15.4h3.4
		c0.2,0,0.5-0.1,0.7-0.2s0.4-0.2,0.6-0.4c0.2-0.2,0.3-0.4,0.4-0.6c0.1-0.2,0.1-0.5,0.1-0.8c0-0.3-0.1-0.5-0.2-0.8
		c-0.1-0.2-0.2-0.4-0.4-0.6c-0.2-0.2-0.4-0.3-0.6-0.4c-0.2-0.1-0.5-0.1-0.7-0.1h-3.3V15.4z"/>
	<path class="st1" d="M79.9,9.5h2.4l5.3,12h-2.8l-1.3-3h-4.9l-1.3,3h-2.8L79.9,9.5z M83,16.9l-1.9-4.7l-2,4.7H83z"/>
	<path class="st1" d="M89.4,9.5l3.8,9.1l3.7-9.1h2.8l-5.4,12H92l-5.5-12H89.4z"/>
	<path class="st1" d="M110.9,19.5v2h-9.7v-12h9.5v2h-6.8v2.9h5.9v1.9h-5.9v3.1H110.9z"/>
	<path class="st1" d="M113,21.5v-12h2.7v10h7.1v2H113z"/>
	<path class="st1" d="M132.7,12.6c-0.1-0.1-0.3-0.2-0.5-0.3c-0.2-0.1-0.5-0.3-0.9-0.4s-0.7-0.2-1.1-0.3s-0.8-0.1-1.2-0.1
		c-0.7,0-1.3,0.1-1.7,0.4c-0.4,0.2-0.5,0.6-0.5,1c0,0.2,0.1,0.5,0.2,0.6c0.1,0.2,0.3,0.3,0.6,0.4c0.3,0.1,0.6,0.2,1,0.3
		c0.4,0.1,0.9,0.2,1.4,0.3c0.7,0.2,1.3,0.3,1.9,0.5c0.6,0.2,1,0.4,1.4,0.7c0.4,0.3,0.7,0.6,0.9,1s0.3,0.8,0.3,1.4
		c0,0.6-0.1,1.2-0.4,1.7s-0.7,0.8-1.1,1.1c-0.5,0.3-1,0.5-1.6,0.6c-0.6,0.1-1.3,0.2-2,0.2c-1,0-2.1-0.1-3.1-0.4
		c-1-0.3-1.9-0.7-2.7-1.2l1.2-2c0.1,0.1,0.3,0.2,0.6,0.4c0.3,0.2,0.7,0.3,1.1,0.5s0.9,0.3,1.4,0.4s1,0.2,1.6,0.2
		c1.5,0,2.2-0.4,2.2-1.2c0-0.3-0.1-0.5-0.3-0.7c-0.2-0.2-0.4-0.3-0.7-0.5c-0.3-0.1-0.7-0.3-1.1-0.4s-0.9-0.2-1.5-0.4
		c-0.7-0.2-1.2-0.3-1.7-0.5s-0.9-0.4-1.2-0.7c-0.3-0.3-0.6-0.5-0.7-0.9c-0.2-0.3-0.2-0.7-0.2-1.2c0-0.6,0.1-1.2,0.4-1.6
		c0.3-0.5,0.6-0.9,1.1-1.2c0.5-0.3,1-0.6,1.6-0.7s1.3-0.2,2-0.2c1,0,1.9,0.1,2.7,0.4c0.8,0.3,1.5,0.6,2.2,0.9L132.7,12.6z"/>
</g>
<g class="st2">
	<path class="st0" d="M57.8,31.9c0-1,0.2-1.9,0.6-2.8c0.4-0.9,1-1.8,1.7-2.5s1.7-1.3,2.8-1.8c1.1-0.5,2.4-0.7,3.8-0.7
		c1.7,0,3.1,0.3,4.3,0.9c1.2,0.6,2.1,1.5,2.7,2.5l-2.7,1.6c-0.2-0.4-0.5-0.8-0.9-1.1c-0.3-0.3-0.7-0.5-1.1-0.7
		c-0.4-0.2-0.8-0.3-1.2-0.4c-0.4-0.1-0.8-0.1-1.2-0.1c-0.9,0-1.7,0.2-2.3,0.5c-0.7,0.3-1.2,0.7-1.6,1.2c-0.4,0.5-0.8,1-1,1.7
		c-0.2,0.6-0.3,1.2-0.3,1.9c0,0.7,0.1,1.4,0.4,2c0.3,0.6,0.6,1.2,1.1,1.7s1,0.9,1.7,1.2s1.4,0.4,2.2,0.4c0.4,0,0.8,0,1.3-0.1
		c0.4-0.1,0.9-0.2,1.3-0.4c0.4-0.2,0.8-0.4,1.1-0.7s0.6-0.7,0.8-1.1l2.9,1.4c-0.3,0.6-0.7,1.1-1.2,1.6S71.7,38.7,71,39
		c-0.7,0.3-1.4,0.5-2.2,0.7s-1.5,0.2-2.2,0.2c-1.3,0-2.5-0.2-3.5-0.7c-1.1-0.5-2-1.1-2.8-1.8c-0.8-0.8-1.4-1.6-1.8-2.6
		C58,33.8,57.8,32.9,57.8,31.9z"/>
	<path class="st0" d="M81.3,24.2h3.1l6.9,15.6h-3.6L86,35.9h-6.3L78,39.8h-3.6L81.3,24.2z M85.3,33.8l-2.5-6.1l-2.6,6.1H85.3z"/>
	<path class="st0" d="M103.8,28.3c-0.1-0.1-0.3-0.2-0.7-0.4c-0.3-0.2-0.7-0.3-1.1-0.5c-0.5-0.2-0.9-0.3-1.5-0.4
		c-0.5-0.1-1.1-0.2-1.6-0.2c-1,0-1.7,0.2-2.2,0.5c-0.5,0.3-0.7,0.7-0.7,1.3c0,0.3,0.1,0.6,0.3,0.8c0.2,0.2,0.4,0.4,0.8,0.6
		s0.8,0.3,1.3,0.4c0.5,0.1,1.1,0.3,1.8,0.4c0.9,0.2,1.7,0.4,2.4,0.7c0.7,0.2,1.3,0.5,1.8,0.9c0.5,0.4,0.9,0.8,1.2,1.3
		c0.3,0.5,0.4,1.1,0.4,1.8c0,0.8-0.2,1.6-0.5,2.1c-0.4,0.6-0.9,1.1-1.5,1.4c-0.6,0.4-1.3,0.6-2.1,0.8c-0.8,0.2-1.7,0.3-2.5,0.3
		c-1.4,0-2.7-0.2-4-0.5c-1.3-0.4-2.5-0.9-3.6-1.5l1.6-2.6c0.2,0.1,0.4,0.3,0.8,0.5s0.9,0.4,1.4,0.6c0.5,0.2,1.1,0.4,1.8,0.5
		c0.7,0.1,1.3,0.2,2,0.2c1.9,0,2.9-0.5,2.9-1.6c0-0.3-0.1-0.6-0.3-0.9c-0.2-0.2-0.5-0.4-0.9-0.6c-0.4-0.2-0.9-0.3-1.5-0.5
		c-0.6-0.1-1.2-0.3-1.9-0.5c-0.9-0.2-1.6-0.4-2.3-0.7s-1.2-0.5-1.6-0.9c-0.4-0.3-0.7-0.7-1-1.1c-0.2-0.4-0.3-0.9-0.3-1.6
		c0-0.8,0.2-1.5,0.5-2.1s0.8-1.1,1.4-1.5c0.6-0.4,1.3-0.7,2.1-0.9c0.8-0.2,1.7-0.3,2.6-0.3c1.3,0,2.4,0.2,3.5,0.5
		c1.1,0.3,2,0.8,2.8,1.2L103.8,28.3z"/>
	<path class="st0" d="M123.8,24.2v15.6h-3.5v-6.7h-8.2v6.7h-3.5V24.2h3.5v6.3h8.2v-6.3H123.8z"/>
</g>
</svg>
